PathFileType	4	(X/Y/Z)	Patient4_TMGait_0pt7_02_left_27.trc.trc
DataRate	CameraRate	NumFrames	NumMarkers	Units	OrigDataRate	OrigDataStartFrame	OrigNumFrames
85.889570552147	85.889570552147	5	33	mm	85.889570552147	71	       141
Frame#	Time	Sacral			L.Shoulder			Chest			R.Shoulder			Neck			R.ASIS			L.ASIS			R.Thigh.Superior			R.Thigh.Lateral			R.Thigh.Inferior			R.Patella			L.Thigh.Superior			L.Thigh.Lateral			L.Thigh.Inferior			L.Patella			L.Shank.Superior			L.Shank.Lateral			L.Shank.Inferior			R.Shank.Superior			R.Shank.Lateral			R.Shank.Inferior			R.Heel			R.Midfoot.Superior			R.Midfoot.Lateral			R.Toe			L.Heel			L.Midfoot.Lateral			L.Midfoot.Superior			L.Toe			L.Elbow			L.Wrist			R.Elbow			R.Wrist			
		X1	Y1	Z1	X2	Y2	Z2	X3	Y3	Z3	X4	Y4	Z4	X5	Y5	Z5	X6	Y6	Z6	X7	Y7	Z7	X8	Y8	Z8	X9	Y9	Z9	X10	Y10	Z10	X11	Y11	Z11	X12	Y12	Z12	X13	Y13	Z13	X14	Y14	Z14	X15	Y15	Z15	X16	Y16	Z16	X17	Y17	Z17	X18	Y18	Z18	X19	Y19	Z19	X20	Y20	Z20	X21	Y21	Z21	X22	Y22	Z22	X23	Y23	Z23	X24	Y24	Z24	X25	Y25	Z25	X26	Y26	Z26	X27	Y27	Z27	X28	Y28	Z28	X29	Y29	Z29	X30	Y30	Z30	X31	Y31	Z31	X32	Y32	Z32	X33	Y33	Z33	

71	31.565000000000	805.543811414799	996.653195476129	436.407404816911	1014.791292133041	1423.253138885878	269.425419620390	1099.526426161733	1349.448448230963	439.901474389621	1001.421284971498	1429.415924997966	602.883314097593	1002.672801808155	1483.018470691887	421.442880728754	1019.643514231875	936.283412175511	577.918425176674	1026.699139375335	946.341770752023	298.577945210996	1105.010460556611	777.475646518007	553.944869448163	1071.103982082318	651.494690222396	629.153456347905	1166.133540371311	622.577458750200	553.103414370770	1207.022982148000	541.241224347657	572.721905712033	1032.359304150329	725.516889164895	331.322692470051	918.040699989509	632.727638890469	260.208849141386	971.372900421560	537.858848223411	328.187723857567	954.658006734511	472.136740440849	336.794195066089	921.077000957719	405.852272168785	326.186670219468	820.218433199142	303.497858379117	271.070636259875	851.466213783095	187.190084359662	345.081938185552	1194.422959200115	450.224218535132	582.977271996765	1144.235846808089	335.170181182024	647.017333148711	1218.456375113212	251.295161295620	598.233166671878	1136.175738436307	57.886086788355	572.498440752124	1294.229594981361	142.706836836519	611.911335600655	1222.013116713947	59.432745435146	643.014743027508	1421.076424873100	114.123931939478	634.216960391504	709.264442904106	38.838437853429	382.333600595720	783.830210871071	35.083795767312	302.614946026280	866.960904755258	95.095927345207	331.325225251745	995.829666367378	41.476486035529	303.498774736082	1113.934196235235	1125.201427801463	98.566324295156	1357.819559479537	1119.584430899286	174.482935955665	907.320963167020	1095.899766944194	727.017994932886	911.375213801487	832.400961613643	738.292061854558	
72	31.576642857143	808.511617938502	993.742992613274	438.639141349767	1014.656710498670	1421.137529776508	271.314181901157	1100.345397336567	1347.707871924303	441.448170431271	1002.392865620935	1427.362350314241	604.744902842070	1002.955218618632	1480.823244448970	423.243807225403	1023.034715563485	933.408396967247	579.481663742267	1029.191114382532	944.292507542554	300.302570982325	1106.689588367026	772.163715845363	556.362713893992	1069.619466064928	646.090420909786	630.144206905255	1165.259094502804	616.750558707735	555.121082863583	1204.522499918726	535.972199493671	573.668744842464	1032.519960489184	722.995917411114	332.040437072350	916.513559937532	631.696773809139	261.096898573527	968.714450995231	535.998904293308	328.756341256061	951.238596032930	470.154156858844	337.206441026489	916.759643734316	404.435814307552	326.608289332990	814.502794094631	303.379343167919	271.397216458723	844.451004978365	186.567089677112	345.145949187331	1193.132390336964	445.123281237521	583.539679533735	1143.541664371672	329.055503843758	645.892390391288	1219.574781324390	246.526464812461	597.443457331901	1139.959665201796	52.932904956872	569.417632239074	1296.641139714768	138.687057308391	610.890670388648	1224.817430963751	55.167188217036	640.954281876726	1423.495386839567	111.153132133657	634.752877608858	701.037444195710	38.802551445264	382.254893649482	775.631549672733	35.007336403178	302.597188879085	858.831451322968	94.964030662572	331.303236397911	987.652581638013	41.220847624926	303.439962481636	1116.787287789636	1125.456547279419	99.142821985099	1359.294464728533	1129.285249376791	177.923093187868	900.507325169345	1097.298109935350	729.319942320641	895.096431922692	834.180528481774	740.530874864229	
73	31.588285714286	811.628725192086	990.766448356087	441.234199257045	1014.452079758255	1418.879857774749	273.324544936425	1101.254218720492	1345.959085971875	443.107852656448	1003.469558491409	1425.277299238669	606.770869725750	1003.246673273599	1478.559883363168	425.187675101144	1026.707914060074	930.435350719688	581.161286369832	1033.393495350811	943.543745189176	302.757635562859	1108.941215408592	766.962888955837	558.921823161432	1068.600453356771	640.764473425147	630.860010028458	1164.998472142153	611.169547682738	557.038124969321	1202.509754800597	530.543545208570	574.382772960662	1033.113511264643	720.420088186889	332.905095648939	915.536100120887	630.497547527811	262.240969963081	966.778080524473	533.997574773964	329.545089403516	948.588878375174	467.907709057760	337.852320429525	913.033949447406	402.792756024279	327.254611489587	809.226787142806	303.267287842303	271.886840461586	837.632875394604	185.891056237256	345.278447641552	1191.786479498188	439.756980719924	583.785279731852	1141.985090024479	323.057885077596	644.408010556572	1219.092090310259	241.374616117929	596.264492662160	1140.350023510928	48.855475892984	566.071684989030	1296.530421777423	133.705929896356	609.369324732303	1224.223927550302	50.985590689319	638.627025084839	1423.016147239576	105.769004603641	634.733975267045	692.797709987505	38.853782810348	382.123945800506	767.450532640235	34.958229813421	302.560004467622	850.751961600397	94.846622997219	331.271558794204	979.504069073492	40.937480651614	303.364781498121	1119.099070010979	1125.202156335292	100.006394609405	1360.019796622394	1137.818475342897	181.307879745113	893.729032565724	1098.987679722265	731.751599206061	880.214182147357	836.548157294267	742.464653195849	
74	31.599928571429	814.820669071705	987.834601499417	444.154710637070	1014.264042726827	1416.542018489717	275.451064285882	1102.283308637912	1344.244047948293	444.895677627263	1004.682617912806	1423.224083005007	608.963667052103	1003.613309793789	1476.305633426310	427.274951208527	1030.573830847290	927.484753319865	582.961817619182	1039.734035722626	944.596508366945	306.078351297211	1111.721986087283	762.038264036925	561.550155707283	1068.132677062901	635.722017731864	631.324296044681	1165.356105657347	606.026234127057	558.760223567792	1201.090888871502	525.195201319438	574.795870069089	1034.140142838698	717.858020712738	333.939053356752	915.140090683131	629.152134145026	263.662625247311	965.631041976300	531.884553809370	330.568127921966	946.794837208447	465.416206212989	338.733285457754	909.958079383240	400.943029661941	328.134971577852	804.444224395568	303.208613995805	272.555264173666	831.048146484686	185.203666379788	345.478550007531	1190.552967043030	434.367651111872	583.706989966702	1139.939084608509	317.380807244840	642.736942037883	1217.375261961734	236.055687390264	594.775120032967	1137.820854264707	45.661468542904	562.757092829503	1294.368273242930	128.043611919579	607.403311528134	1220.818085647969	47.064108105011	636.246647355245	1420.209559304037	98.435300068897	634.103673914424	684.555981016996	39.092952621782	381.931689802079	759.297744980505	34.982056752669	302.498466558449	842.758284725300	94.761766235043	331.216801600128	971.394842189245	40.630307183900	303.271232757958	1120.843139503369	1124.411484424917	101.178775857115	1360.076178281256	1145.099561214872	184.611482315027	887.163684665102	1100.928151662038	734.255549564906	866.672605076230	839.297630005845	744.243433192841	
75	31.611571428571	818.010101684864	985.068263040696	447.342983761824	1014.185574594608	1414.206703683232	277.685698569854	1103.461064911362	1342.612746499256	446.822058309122	1006.068946228280	1421.279963722300	611.320140481121	1004.129155430616	1474.153018680185	429.502924747043	1034.531338777554	924.695803372667	584.887373020264	1048.390589490805	947.753202562819	310.313368949861	1114.960132435953	757.572892264429	564.154153957147	1068.313199400680	631.194205991881	631.607273692804	1166.311141480745	601.511005154677	560.202020641113	1200.345731002963	520.180047190116	574.886600425114	1035.579833541227	715.397138050585	335.165390833153	915.345523673087	627.699477963923	265.371154050394	965.333532846107	529.710314716689	331.827768486171	945.937082275917	462.720507223433	339.827248689615	907.589323372562	398.931267389369	329.235992530533	800.205472570445	303.272995193513	273.406656126168	824.744575517528	184.569292313845	345.732752918930	1189.586196449027	429.218434122229	583.344708202300	1137.774167630583	312.249873834173	641.081269682665	1214.805132337463	230.832788685723	593.087463462479	1132.956529725597	43.337113011393	559.736585388592	1290.635008501587	122.072038397024	605.103388085336	1215.258953382924	43.591103235000	634.018386507135	1415.655658625399	89.816542802314	632.906056184085	676.335216576254	39.656319393013	381.673569523644	751.188277247628	35.144823212300	302.409168410573	834.899718174809	94.732921965072	331.120073606422	963.334597768093	40.305712093292	303.158765377461	1121.984142867639	1123.074801660644	102.686268968753	1359.540402407017	1151.050395038178	187.811496485754	881.005127246281	1103.062247259008	736.764771920889	854.444545639120	842.262071302454	745.982814234327	
